HIERARCHY
ROOT Hips
{
	OFFSET 0.000000 83.214638 0.000000
	CHANNELS 6 Xposition Yposition Zposition Xrotation Yrotation Zrotation
	JOINT Pelvis
	{
		OFFSET 0.000000 0.000000 0.000000
		CHANNELS 3 Xrotation Yrotation Zrotation
		JOINT LeftUpLeg
		{
			OFFSET 8.479700 -4.795502 -0.379100
			CHANNELS 3 Xrotation Yrotation Zrotation
			JOINT LeftLeg
			{
				OFFSET 0.024144 -32.555107 0.112900
				CHANNELS 3 Xrotation Yrotation Zrotation
				JOINT LeftFoot
				{
					OFFSET -0.024144 -32.638630 -3.012600
					CHANNELS 3 Xrotation Yrotation Zrotation
					JOINT LeftToeBase
					{
						OFFSET 0.970200 -13.225400 11.864200
						CHANNELS 3 Xrotation Yrotation Zrotation
						End Site
						{
							OFFSET 0.000000 12.319262 0.000000
						}
					}
					JOINT LFootTongue
					{
						OFFSET 1.142400 -1.059800 6.665200
						CHANNELS 3 Xrotation Yrotation Zrotation
						End Site
						{
							OFFSET 0.000000 12.319262 0.000000
						}
					}
				}
				JOINT LeftPantLeg
				{
					OFFSET 0.918482 -16.533964 -2.284700
					CHANNELS 3 Xrotation Yrotation Zrotation
					End Site
					{
						OFFSET 0.350399 24.744368 0.000000
					}
				}
			}
		}
		JOINT RightUpLeg
		{
			OFFSET -8.479700 -4.795502 -0.379100
			CHANNELS 3 Xrotation Yrotation Zrotation
			JOINT RightLeg
			{
				OFFSET -0.023144 -32.555092 0.112900
				CHANNELS 3 Xrotation Yrotation Zrotation
				JOINT RightFoot
				{
					OFFSET 0.023144 -32.638641 -3.012700
					CHANNELS 3 Xrotation Yrotation Zrotation
					JOINT RightToeBase
					{
						OFFSET -0.970200 -13.225400 11.864200
						CHANNELS 3 Xrotation Yrotation Zrotation
						End Site
						{
							OFFSET 0.000000 12.319244 0.000000
						}
					}
					JOINT RFootTongue
					{
						OFFSET -1.142200 -1.059800 6.665200
						CHANNELS 3 Xrotation Yrotation Zrotation
						End Site
						{
							OFFSET 0.000000 12.319243 0.000000
						}
					}
				}
				JOINT RightPantLeg
				{
					OFFSET -0.919482 -16.533978 -2.284800
					CHANNELS 3 Xrotation Yrotation Zrotation
					End Site
					{
						OFFSET -0.350400 24.744419 0.000000
					}
				}
			}
		}
	}
	JOINT Spine
	{
		OFFSET 0.000000 7.722000 1.166200
		CHANNELS 3 Xrotation Yrotation Zrotation
		JOINT Spine1
		{
			OFFSET 0.000000 12.024101 0.248800
			CHANNELS 3 Xrotation Yrotation Zrotation
			JOINT Spine2
			{
				OFFSET 0.000000 11.502998 -0.491200
				CHANNELS 3 Xrotation Yrotation Zrotation
				JOINT Neck
				{
					OFFSET 0.000000 18.430702 -3.123100
					CHANNELS 3 Xrotation Yrotation Zrotation
					JOINT Head
					{
						OFFSET 0.000000 9.051102 1.034000
						CHANNELS 3 Xrotation Yrotation Zrotation
						JOINT HairB
						{
							OFFSET 0.208400 24.786102 24.822300
							CHANNELS 3 Xrotation Yrotation Zrotation
							End Site
							{
								OFFSET 0.000000 32.263779 0.000000
							}
						}
						JOINT HairA
						{
							OFFSET -7.081100 24.428299 23.196600
							CHANNELS 3 Xrotation Yrotation Zrotation
							End Site
							{
								OFFSET 0.000000 32.263779 0.000000
							}
						}
						JOINT Hat
						{
							OFFSET 16.728800 15.048294 -15.439601
							CHANNELS 3 Xrotation Yrotation Zrotation
							End Site
							{
								OFFSET 0.000000 32.263779 0.000000
							}
						}
					}
				}
				JOINT LeftShoulder
				{
					OFFSET 6.197800 13.665199 -4.064700
					CHANNELS 3 Xrotation Yrotation Zrotation
					JOINT LeftArm
					{
						OFFSET 7.778100 -0.187103 -1.709300
						CHANNELS 3 Xrotation Yrotation Zrotation
						JOINT LeftForeArm
						{
							OFFSET 22.049376 0.000000 0.000000
							CHANNELS 3 Xrotation Yrotation Zrotation
							JOINT LeftHand
							{
								OFFSET 23.009392 0.000000 0.000000
								CHANNELS 3 Xrotation Yrotation Zrotation
								JOINT LeftHandThumb1
								{
									OFFSET 3.507191 -2.063065 3.133727
									CHANNELS 3 Xrotation Yrotation Zrotation
									JOINT LeftHandThumb2
									{
										OFFSET 3.101337 -1.790558 1.790558
										CHANNELS 3 Xrotation Yrotation Zrotation
										JOINT LeftHandThumb3
										{
											OFFSET 3.058640 -1.765907 1.765906
											CHANNELS 3 Xrotation Yrotation Zrotation
											End Site
											{
												OFFSET -0.415260 3.926476 -0.049563
											}
										}
									}
								}
								JOINT LeftHandIndex1
								{
									OFFSET 11.334419 -0.901459 3.706815
									CHANNELS 3 Xrotation Yrotation Zrotation
									JOINT LeftHandIndex2
									{
										OFFSET 3.283112 0.000000 0.000000
										CHANNELS 3 Xrotation Yrotation Zrotation
										JOINT LeftHandIndex3
										{
											OFFSET 3.323853 0.000000 0.000000
											CHANNELS 3 Xrotation Yrotation Zrotation
											End Site
											{
												OFFSET -1.135597 3.097809 0.402452
											}
										}
									}
								}
								JOINT LeftHandMiddle1
								{
									OFFSET 11.335861 0.000000 0.000000
									CHANNELS 3 Xrotation Yrotation Zrotation
									JOINT LeftHandMiddle2
									{
										OFFSET 3.410492 0.000000 0.000000
										CHANNELS 3 Xrotation Yrotation Zrotation
										JOINT LeftHandMiddle3
										{
											OFFSET 3.312172 0.000000 0.000000
											CHANNELS 3 Xrotation Yrotation Zrotation
											End Site
											{
												OFFSET -1.150200 3.080154 0.400270
											}
										}
									}
								}
								JOINT LeftHandRing1
								{
									OFFSET 11.514786 -0.013176 -3.003090
									CHANNELS 3 Xrotation Yrotation Zrotation
									JOINT LeftHandRing2
									{
										OFFSET 3.053307 0.000000 0.000000
										CHANNELS 3 Xrotation Yrotation Zrotation
										JOINT LeftHandRing3
										{
											OFFSET 3.295807 0.000000 0.000000
											CHANNELS 3 Xrotation Yrotation Zrotation
											End Site
											{
												OFFSET -1.281006 3.013344 0.375733
											}
										}
									}
								}
								JOINT LeftHandPinky1
								{
									OFFSET 10.518692 -0.960396 -5.730441
									CHANNELS 3 Xrotation Yrotation Zrotation
									JOINT LeftHandPinky2
									{
										OFFSET 2.861649 0.000000 0.000000
										CHANNELS 3 Xrotation Yrotation Zrotation
										JOINT LeftHandPinky3
										{
											OFFSET 2.863380 0.000000 0.000000
											CHANNELS 3 Xrotation Yrotation Zrotation
											End Site
											{
												OFFSET -0.843597 2.711159 0.369971
											}
										}
									}
								}
							}
							JOINT LSleeve
							{
								OFFSET 6.676277 -0.344902 -1.011730
								CHANNELS 3 Xrotation Yrotation Zrotation
								End Site
								{
									OFFSET 0.000000 14.885353 0.000000
								}
							}
						}
					}
				}
				JOINT RightShoulder
				{
					OFFSET -6.197800 13.665199 -4.064700
					CHANNELS 3 Xrotation Yrotation Zrotation
					JOINT RightArm
					{
						OFFSET -7.778100 -0.187103 -1.709300
						CHANNELS 3 Xrotation Yrotation Zrotation
						JOINT RightForeArm
						{
							OFFSET -22.049376 0.000000 0.000000
							CHANNELS 3 Xrotation Yrotation Zrotation
							JOINT RightHand
							{
								OFFSET -23.009392 0.000000 0.000000
								CHANNELS 3 Xrotation Yrotation Zrotation
								JOINT RightHandThumb1
								{
									OFFSET -3.507191 -2.063065 3.133727
									CHANNELS 3 Xrotation Yrotation Zrotation
									JOINT RightHandThumb2
									{
										OFFSET -3.101337 -1.790558 1.790558
										CHANNELS 3 Xrotation Yrotation Zrotation
										JOINT RightHandThumb3
										{
											OFFSET -3.058640 -1.765907 1.765906
											CHANNELS 3 Xrotation Yrotation Zrotation
											End Site
											{
												OFFSET 0.415260 3.926476 -0.049563
											}
										}
									}
								}
								JOINT RightHandIndex1
								{
									OFFSET -11.334419 -0.901459 3.706815
									CHANNELS 3 Xrotation Yrotation Zrotation
									JOINT RightHandIndex2
									{
										OFFSET -3.283112 0.000000 0.000000
										CHANNELS 3 Xrotation Yrotation Zrotation
										JOINT RightHandIndex3
										{
											OFFSET -3.323853 0.000000 0.000000
											CHANNELS 3 Xrotation Yrotation Zrotation
											End Site
											{
												OFFSET 1.135597 3.097809 0.402452
											}
										}
									}
								}
								JOINT RightHandMiddle1
								{
									OFFSET -11.335861 0.000000 0.000000
									CHANNELS 3 Xrotation Yrotation Zrotation
									JOINT RightHandMiddle2
									{
										OFFSET -3.410492 0.000000 0.000000
										CHANNELS 3 Xrotation Yrotation Zrotation
										JOINT RightHandMiddle3
										{
											OFFSET -3.312172 0.000000 0.000000
											CHANNELS 3 Xrotation Yrotation Zrotation
											End Site
											{
												OFFSET 1.150200 3.080154 0.400270
											}
										}
									}
								}
								JOINT RightHandRing1
								{
									OFFSET -11.514786 -0.013176 -3.003090
									CHANNELS 3 Xrotation Yrotation Zrotation
									JOINT RightHandRing2
									{
										OFFSET -3.053307 0.000000 0.000000
										CHANNELS 3 Xrotation Yrotation Zrotation
										JOINT RightHandRing3
										{
											OFFSET -3.295807 0.000000 0.000000
											CHANNELS 3 Xrotation Yrotation Zrotation
											End Site
											{
												OFFSET 1.281006 3.013344 0.375733
											}
										}
									}
								}
								JOINT RightHandPinky1
								{
									OFFSET -10.518692 -0.960396 -5.730441
									CHANNELS 3 Xrotation Yrotation Zrotation
									JOINT RightHandPinky2
									{
										OFFSET -2.861649 0.000000 0.000000
										CHANNELS 3 Xrotation Yrotation Zrotation
										JOINT RightHandPinky3
										{
											OFFSET -2.863380 0.000000 0.000000
											CHANNELS 3 Xrotation Yrotation Zrotation
											End Site
											{
												OFFSET 0.843597 2.711159 0.369971
											}
										}
									}
								}
							}
							JOINT RSleeve
							{
								OFFSET -6.676277 -0.344902 -1.011730
								CHANNELS 3 Xrotation Yrotation Zrotation
								End Site
								{
									OFFSET 0.000000 14.885353 0.000000
								}
							}
						}
					}
				}
				JOINT Backpack
				{
					OFFSET 0.000000 -2.471497 36.677502
					CHANNELS 3 Xrotation Yrotation Zrotation
					End Site
					{
						OFFSET 0.000000 20.427315 0.000000
					}
				}
				JOINT Hood
				{
					OFFSET 0.000000 18.754097 -10.431000
					CHANNELS 3 Xrotation Yrotation Zrotation
					JOINT Hood1
					{
						OFFSET 0.000000 -5.011002 -7.685901
						CHANNELS 3 Xrotation Yrotation Zrotation
						End Site
						{
							OFFSET 0.000000 9.175140 0.000000
						}
					}
				}
				JOINT LHoodieString
				{
					OFFSET 5.250500 16.397697 3.089900
					CHANNELS 3 Xrotation Yrotation Zrotation
					JOINT LHoodieString1
					{
						OFFSET 0.257700 -6.364304 3.694600
						CHANNELS 3 Xrotation Yrotation Zrotation
						JOINT LHoodieString2
						{
							OFFSET 0.000000 -9.643799 2.679100
							CHANNELS 3 Xrotation Yrotation Zrotation
							End Site
							{
								OFFSET 0.000000 10.009018 0.000000
							}
						}
					}
				}
				JOINT RHoodieString
				{
					OFFSET -5.250500 16.397697 3.089900
					CHANNELS 3 Xrotation Yrotation Zrotation
					JOINT RHoodieString1
					{
						OFFSET -0.257700 -6.364304 3.694600
						CHANNELS 3 Xrotation Yrotation Zrotation
						JOINT RHoodieString2
						{
							OFFSET 0.000000 -9.643799 2.679100
							CHANNELS 3 Xrotation Yrotation Zrotation
							End Site
							{
								OFFSET 0.000000 10.009018 0.000000
							}
						}
					}
				}
			}
			JOINT LBackpack_Strap
			{
				OFFSET 15.223200 -7.719803 -6.610900
				CHANNELS 3 Xrotation Yrotation Zrotation
				End Site
				{
					OFFSET 0.000000 16.040596 0.000000
				}
			}
			JOINT RBackpack_Strap
			{
				OFFSET -15.223000 -7.719803 -6.610900
				CHANNELS 3 Xrotation Yrotation Zrotation
				End Site
				{
					OFFSET 0.000000 16.040596 0.000000
				}
			}
		}
	}
	JOINT BoyFacialAnim_Joint
	{
		OFFSET 1.000000 -82.208099 -1.550900
		CHANNELS 3 Xrotation Yrotation Zrotation
		End Site
		{
			OFFSET 0.000000 30.012791 0.000000
		}
	}
}
MOTION
Frames: 4
Frame Time: 0.033333
-134.556046 74.036789 0.018038 1.656140 -51.339465 0.999247 -0.000000 0.000000 -0.000000 -9.385784 2.649994 3.143795 54.647947 4.916126 10.404749 -28.674176 -9.643510 8.846904 -0.000001 -0.000001 -0.000001 -0.000001 -0.000001 -0.000000 -0.000003 0.000001 -0.000002 -48.892495 -2.430432 -26.873369 18.471106 10.286956 5.546091 5.675801 -26.543285 13.149789 0.000002 0.000000 -0.000000 0.000002 0.000000 -0.000000 0.000001 -0.000000 -0.000000 2.050863 1.389160 4.118764 3.482558 2.343057 2.151565 3.446138 2.376368 2.170594 13.478722 6.119111 -3.148030 -7.555102 30.915536 2.853660 0.000000 0.000000 0.000001 0.000000 0.000000 0.000001 0.000000 0.000000 0.000001 0.534885 -9.989722 -11.939744 -44.688845 -18.033603 -41.379171 -0.000059 -65.575150 -0.000065 -115.154490 -4.459891 15.421408 -0.329781 -15.770043 7.158043 3.939053 7.948703 0.746813 -0.000002 0.000001 0.000000 0.460891 2.481206 -21.042817 0.460885 2.481189 -21.042809 -0.000002 -0.000000 -0.000005 0.460196 2.479393 -21.026806 0.461584 2.482990 -21.058831 -0.000003 0.000002 -0.000003 0.541884 2.682040 -22.840749 0.541879 2.682034 -22.840747 -0.000001 -0.000001 -0.000008 2.453793 6.666639 -25.490082 0.699381 -1.047979 -26.312679 0.000001 -0.000001 0.000005 -0.000002 0.000005 0.000001 3.393622 31.250182 6.981362 -57.484860 31.059305 71.111442 0.000252 77.595641 -0.000242 -32.204765 -34.291822 3.253338 24.742862 -13.971812 11.207080 7.335579 -24.090806 -5.399702 0.000001 0.000002 0.000000 0.145430 10.767189 -0.131855 4.502376 -6.505511 69.343332 -0.000000 -0.000001 0.000002 5.893964 -6.868194 81.251678 5.893964 -6.868186 81.251684 0.000001 0.000000 -0.000000 5.893958 -6.868182 81.251684 5.893973 -6.868186 81.251678 0.000001 -0.000000 0.000004 5.893961 -6.868153 81.251671 5.893970 -6.868191 81.251684 0.000001 -0.000000 0.000000 0.000000 0.000001 -0.000000 0.000001 -0.000001 0.000001 0.000001 -0.000001 0.000001 0.000001 -0.000001 0.000001 0.000001 -0.000001 0.000001 0.000001 -0.000001 0.000000 0.000001 -0.000003 -0.000001 0.000001 -0.000001 0.000001 0.000001 -0.000001 0.000000 0.000001 -0.000003 -0.000001 0.000000 0.000001 -0.000000 0.000000 0.000001 -0.000000 -0.000000 0.000000 -0.000000 
-140.809631 74.008286 0.037050 0.814223 -50.188367 1.114450 -0.000000 0.000001 0.000000 -5.365303 3.636248 6.552141 51.250912 6.859252 10.373131 -22.338195 -13.902245 8.345685 -0.000000 0.000001 -0.000001 -0.000000 0.000001 -0.000000 0.000001 0.000001 0.000001 -47.986341 -3.319681 -26.135024 18.554036 10.420910 5.349388 5.999844 -27.974954 13.806426 -0.000001 -0.000000 0.000002 -0.000001 -0.000000 0.000002 -0.000002 -0.000001 -0.000000 1.943034 0.948866 3.597229 3.290080 1.586393 1.796949 3.267112 1.617718 1.808927 13.681678 6.042100 -3.244822 -7.415139 30.133388 3.491940 -0.000000 -0.000000 0.000002 -0.000000 -0.000000 0.000002 -0.000000 -0.000000 0.000002 0.531870 -10.478485 -11.832329 -44.689760 -18.473146 -41.559580 0.000004 -65.234146 0.000014 -115.145665 -4.458074 15.427869 -0.329780 -15.770044 7.158043 3.939050 7.948700 0.746814 0.000000 0.000000 -0.000000 0.460894 2.481201 -21.042812 0.460886 2.481188 -21.042809 -0.000005 0.000000 -0.000002 0.460200 2.479393 -21.026806 0.461582 2.483001 -21.058839 0.000000 0.000001 -0.000003 0.541884 2.682041 -22.840747 0.541880 2.682035 -22.840750 0.000001 -0.000002 -0.000004 2.453792 6.666634 -25.490080 0.699380 -1.047983 -26.312682 -0.000000 -0.000001 0.000001 -0.000002 0.000003 0.000005 3.140578 30.144528 6.745507 -56.817687 31.731061 70.911058 0.000083 77.443048 -0.000118 -30.648538 -34.465172 4.262592 24.742859 -13.971811 11.207079 7.335575 -24.090805 -5.399703 0.000000 0.000002 0.000001 0.145432 10.767187 -0.131855 4.502378 -6.505511 69.343332 -0.000001 0.000000 0.000004 5.893965 -6.868193 81.251678 5.893965 -6.868186 81.251684 0.000001 0.000001 -0.000002 5.893960 -6.868183 81.251684 5.893973 -6.868186 81.251684 -0.000001 0.000000 0.000002 5.893964 -6.868152 81.251678 5.893969 -6.868192 81.251684 -0.000000 0.000000 -0.000001 -0.000002 -0.000001 0.000000 0.000001 -0.000001 0.000002 0.000001 -0.000001 0.000002 0.000001 -0.000001 0.000002 0.000001 -0.000001 0.000002 0.000001 -0.000001 0.000001 0.000001 0.000000 -0.000000 0.000001 -0.000001 0.000002 0.000001 -0.000001 0.000001 0.000001 0.000000 -0.000000 0.000000 -0.000002 -0.000000 0.000000 -0.000002 -0.000000 -0.000000 0.000001 0.000000 
-146.910385 73.793251 0.057205 0.046184 -49.283602 1.121617 0.000000 0.000001 -0.000000 -4.267840 3.897393 9.132654 50.447958 6.171214 10.068127 -10.395700 -14.817605 12.227596 -0.000001 0.000002 -0.000001 -0.000001 0.000002 -0.000001 0.000001 0.000001 -0.000002 -48.253531 -5.772402 -25.744716 22.509500 10.256020 5.606979 7.312540 -26.410694 14.140393 -0.000002 0.000000 0.000001 -0.000002 0.000000 0.000001 -0.000002 -0.000001 -0.000002 1.776434 0.679927 3.134242 3.001560 1.132588 1.390065 2.987500 1.160299 1.397211 13.682325 5.968084 -3.149976 -6.950668 29.609075 3.673492 -0.000001 -0.000001 0.000001 -0.000001 -0.000001 0.000001 -0.000001 -0.000001 0.000001 0.547740 -10.819321 -11.446450 -44.752981 -19.033205 -41.731612 0.000004 -64.823420 0.000003 -115.246697 -4.475919 15.418196 -0.329781 -15.770044 7.158041 3.939052 7.948700 0.746814 -0.000002 -0.000001 -0.000000 0.460897 2.481202 -21.042812 0.460888 2.481183 -21.042807 -0.000003 0.000001 -0.000003 0.460201 2.479395 -21.026804 0.461586 2.483000 -21.058832 0.000001 0.000001 -0.000003 0.541885 2.682040 -22.840743 0.541879 2.682030 -22.840747 0.000004 -0.000002 -0.000003 2.453798 6.666632 -25.490078 0.699378 -1.047980 -26.312684 0.000001 0.000002 0.000004 0.000003 -0.000002 -0.000001 2.958075 29.071010 6.604355 -56.505851 32.216831 70.863957 0.000073 77.361680 -0.000082 -30.285810 -34.531329 4.507048 24.742864 -13.971812 11.207080 7.335580 -24.090803 -5.399703 0.000002 0.000001 -0.000001 0.145431 10.767187 -0.131855 4.502380 -6.505503 69.343332 0.000001 -0.000001 -0.000000 5.893965 -6.868194 81.251684 5.893965 -6.868188 81.251691 0.000000 0.000001 -0.000002 5.893960 -6.868183 81.251684 5.893973 -6.868186 81.251684 -0.000000 -0.000000 0.000002 5.893962 -6.868153 81.251678 5.893969 -6.868189 81.251691 0.000000 0.000000 -0.000003 -0.000001 0.000002 0.000000 0.000001 -0.000000 0.000001 0.000001 -0.000000 0.000001 0.000001 -0.000000 0.000001 0.000001 -0.000000 0.000001 0.000001 -0.000000 0.000001 0.000000 -0.000000 -0.000000 0.000001 -0.000000 0.000001 0.000001 -0.000000 0.000001 0.000000 -0.000000 -0.000000 -0.000000 0.000003 -0.000000 -0.000000 0.000003 -0.000000 0.000000 0.000001 -0.000000 
-152.599564 73.341660 0.073140 -0.618694 -48.827380 0.879388 -0.000000 0.000000 -0.000000 -6.247415 3.177060 11.402671 53.250228 3.945990 9.944490 1.659464 -11.850718 15.365498 -0.000000 -0.000002 -0.000001 -0.000000 -0.000002 -0.000001 -0.000001 0.000003 -0.000001 -48.750929 -8.688374 -25.418283 27.525495 10.007513 6.286898 8.677086 -23.677974 11.700446 -0.000000 -0.000001 0.000000 -0.000000 -0.000001 0.000000 -0.000000 0.000003 -0.000001 1.647952 0.725788 2.715011 2.855827 1.236622 1.052863 2.846019 1.258448 1.057735 13.336239 5.945280 -2.797918 -6.222360 29.713812 3.226162 -0.000000 -0.000002 0.000000 -0.000000 -0.000002 0.000000 -0.000000 -0.000002 0.000000 0.587973 -10.812751 -10.698538 -44.790922 -19.616035 -41.861068 -0.000050 -64.376411 -0.000044 -115.415116 -4.504762 15.404532 -0.329777 -15.770043 7.158043 3.939053 7.948696 0.746815 -0.000001 -0.000001 -0.000001 0.460896 2.481203 -21.042816 0.460887 2.481182 -21.042812 -0.000003 -0.000001 0.000001 0.460200 2.479394 -21.026806 0.461584 2.483001 -21.058832 -0.000006 -0.000002 0.000002 0.541883 2.682041 -22.840743 0.541881 2.682032 -22.840750 -0.000002 0.000002 -0.000005 2.453792 6.666632 -25.490080 0.699383 -1.047978 -26.312684 -0.000003 0.000000 0.000003 -0.000000 0.000005 0.000001 2.945139 28.463656 6.694987 -56.762144 32.162575 71.050927 -0.000016 77.419231 0.000004 -31.559022 -34.434245 3.690297 24.742861 -13.971812 11.207080 7.335576 -24.090806 -5.399702 -0.000000 0.000001 -0.000002 0.145431 10.767186 -0.131855 4.502379 -6.505506 69.343332 -0.000002 0.000000 0.000002 5.893963 -6.868194 81.251678 5.893964 -6.868187 81.251691 -0.000001 0.000000 0.000001 5.893958 -6.868182 81.251678 5.893973 -6.868186 81.251684 0.000001 0.000000 0.000002 5.893961 -6.868151 81.251678 5.893970 -6.868191 81.251691 0.000000 0.000000 -0.000003 -0.000003 -0.000000 -0.000000 0.000000 0.000001 -0.000000 0.000000 0.000001 -0.000000 0.000000 0.000001 -0.000000 0.000000 0.000001 -0.000000 0.000000 0.000001 -0.000000 -0.000001 -0.000000 0.000000 0.000000 0.000001 -0.000000 0.000000 0.000001 -0.000000 -0.000001 -0.000000 0.000000 0.000000 0.000003 -0.000000 0.000000 0.000003 -0.000000 -0.000000 0.000000 -0.000000 
